<?xml version="1.0" encoding="UTF-8" standalone="no"?>
<!DOCTYPE svg PUBLIC "-//W3C//DTD SVG 1.1//EN" "http://www.w3.org/Graphics/SVG/1.1/DTD/svg11.dtd">
<svg width="100%" height="100%" viewBox="0 0 800 800" version="1.1" xmlns="http://www.w3.org/2000/svg" xmlns:xlink="http://www.w3.org/1999/xlink" xml:space="preserve" xmlns:serif="http://www.serif.com/" style="fill-rule:evenodd;clip-rule:evenodd;stroke-linejoin:round;stroke-miterlimit:2;">
    <g transform="matrix(1.14286,0,0,1.14286,-57.1429,-57.1429)">
        <path d="M739.313,346.063L735.781,331.078L410.094,331.078L410.094,468.922L604.688,468.922C584.484,564.859 490.734,615.359 414.156,615.359C358.438,615.359 299.703,591.922 260.828,554.25C219.42,513.482 195.906,457.857 195.516,399.75C195.516,341.688 221.609,283.609 259.578,245.406C297.547,207.203 354.891,185.828 411.906,185.828C477.203,185.828 524,220.5 541.5,236.313L639.453,138.875C610.719,113.625 531.781,50 408.75,50C313.828,50 222.813,86.359 156.281,152.672C90.625,217.969 56.641,312.391 56.641,400C56.641,487.609 88.797,577.313 152.422,643.125C220.406,713.313 316.688,750 415.828,750C506.031,750 591.531,714.656 652.469,650.531C712.375,587.406 743.359,500.063 743.359,408.5C743.359,369.953 739.484,347.063 739.313,346.063Z" fill="currentColor"/>
    </g>
</svg>
